# xmcd
#
# Track frame offsets:
#	151
#	27105
#	44547
#	63245
#	88964
#	112705
#	134040
#	155047
#	177497
#
# Disc length: 2632 seconds
#
# Revision: 0
# Processed by: cddbd v1.5.2PL0 Copyright (c) Steve Scherf et al.
# Submitted via: audiograbber 1.83.01
#
DISCID=7b0a4609
DTITLE=Noonday Moon - Kenni
DYEAR=1900
DGENRE=
TTITLE0=Just What I Need
TTITLE1=A Thousand Heartland Acres
TTITLE2=Hills
TTITLE3=Carry Me Home
TTITLE4=Golden Gate
TTITLE5=Rain's Gonna Come
TTITLE6=Breakfast Blues
TTITLE7=I Remember Everything
TTITLE8=Cottage for Sale
EXTD=
EXTT0=
EXTT1=
EXTT2=
EXTT3=
EXTT4=
EXTT5=
EXTT6=
EXTT7=
EXTT8=
PLAYORDER=
